<svg width="27" height="22" viewBox="0 0 27 22" fill="none" xmlns="http://www.w3.org/2000/svg">
<path d="M6.81907 20.1113C1.29138 1.76866 25.7055 0.828977 20.1781 20.1113" stroke="#D02F13" stroke-width="12"/>
<path d="M15.1789 6.72282C15.4933 7.92083 17.1379 8.51183 18.8522 8.04286C20.5665 7.57388 22.2768 4.79409 21.247 4.49139C20.2171 4.18869 16.8932 6.25385 15.1789 6.72282Z" fill="black" fill-opacity="0.4"/>
<path d="M12.8675 6.68366C12.5553 7.87336 10.9397 8.46509 9.25911 8.00532C7.57847 7.54554 5.90886 4.79294 6.92033 4.48926C7.9318 4.18558 11.1869 6.22389 12.8675 6.68366Z" fill="black" fill-opacity="0.4"/>
<path d="M18.999 12.7731C18.999 14.7049 16.5366 10.4413 13.499 10.4413C10.4615 10.4413 7.99902 14.7049 7.99902 12.7731C7.99902 10.8414 10.4615 9.27539 13.499 9.27539C16.5366 9.27539 18.999 10.8414 18.999 12.7731Z" fill="black" fill-opacity="0.2"/>
</svg>
