<svg width="27" height="27" viewBox="0 0 27 27" fill="none" xmlns="http://www.w3.org/2000/svg">
<circle cx="3" cy="3" r="3" fill="#3E4360"/>
<circle cx="5" cy="22" r="5" fill="#3E4360"/>
<path d="M24 16.5C24 22.0225 16.5 22.9987 12.35 22.9987C8.2 22.9987 2 19.5225 2 14C2 8.47752 6.95142 3 12.35 3C20 3.5 24 10.9775 24 16.5Z" fill="#3E4360"/>
<circle cx="23.5" cy="21.5" r="3.5" fill="#3E4360"/>
<path d="M13 15C14.8 15 14.3431 15 16 15C17.6569 15 16.6 15 19 15C19 16.1046 17.6569 17 16 17C14.3431 17 13 16.1046 13 15Z" fill="white"/>
<path d="M5 15C6.8 15 6.34315 15 8 15C9.65685 15 8.6 15 11 15C11 16.1046 9.65685 17 8 17C6.34315 17 5 16.1046 5 15Z" fill="white"/>
<path d="M10 15C8.8 15 9.10457 15 8 15C6.89543 15 7.6 15 6 15C6 15.5523 6.89543 16 8 16C9.10457 16 10 15.5523 10 15Z" fill="black"/>
<path d="M14 15C15.2 15 14.8954 15 16 15C17.1046 15 16.4 15 18 15C18 15.5523 17.1046 16 16 16C14.8954 16 14 15.5523 14 15Z" fill="black"/>
<circle cx="21" cy="5" r="4" fill="#3E4360"/>
</svg>
