<svg width="23" height="22" viewBox="0 0 23 22" fill="none" xmlns="http://www.w3.org/2000/svg">
<path d="M10.1454 1.62583C7.54148 -0.00512968 3.55707 -0.90336 1.39734 1.35533C-0.353329 3.1867 0.343466 6.59609 1.64539 9.37388C-0.0336113 12.4325 -0.904387 18.3605 1.3993 20.7704C3.57622 23.0476 7.19482 21.0969 9.64344 19.0614C12.2793 21.2285 19.2631 23.4003 21.7802 20.7674C24.4555 17.9688 21.8931 11.3828 19.7108 9.09947C19.6159 9.00017 19.5172 8.90662 19.4179 8.81724C21.5731 6.45282 23.755 3.42123 21.7802 1.35533C19.6213 -0.90278 13.5547 -0.00420972 10.1454 1.62583Z" fill="#FFCC00"/>
<path d="M6 11.4026C6 12.8052 7.52419 15 9.73333 15C11.9425 15 14 12.8052 14 11.4026C14 10.0001 11.4053 13.8501 9.272 13.2579C7.13867 12.6657 6 10.0001 6 11.4026Z" fill="black" fill-opacity="0.15"/>
<path d="M11.5883 8.24649C11.5883 9.62311 12.6579 6.75811 13.9773 6.75811C15.2966 6.75811 16.3662 9.62311 16.3662 8.24649C16.3662 6.86987 15.2966 5.75391 13.9773 5.75391C12.6579 5.75391 11.5883 6.86987 11.5883 8.24649Z" fill="black" fill-opacity="0.4"/>
<path d="M8.67733 8.24649C8.67733 9.62311 7.60776 6.75811 6.28837 6.75811C4.96899 6.75811 3.89941 9.62311 3.89941 8.24649C3.89941 6.86987 4.96899 5.75391 6.28837 5.75391C7.60776 5.75391 8.67733 6.86987 8.67733 8.24649Z" fill="black" fill-opacity="0.4"/>
</svg>
