<svg width="24" height="19" viewBox="0 0 24 19" fill="none" xmlns="http://www.w3.org/2000/svg">
<path d="M0 13.8163C0 22.1221 7.72531 16.932 14.5 16.932C21.2747 16.932 24 22.1221 24 13.8163C24 0.0851927 16 -2.46387 9 2.03612C4 -0.464374 0 5.51059 0 13.8163Z" fill="#839FB0"/>
<path d="M18 13.4505C18 14.4773 16.35 12.7012 13.05 12.7012C9.75 12.7012 7 15.1155 7 13.4505C7 12.4236 8.91243 11.0361 11.95 11.0361C14.9876 11.0361 18 12.4236 18 13.4505Z" fill="black" fill-opacity="0.2"/>
<path d="M10.3564 6.03613C10.5951 6.37746 10.7362 6.78184 10.7363 7.21777C10.7363 7.7648 10.5165 8.26333 10.1562 8.64746C9.69553 8.57589 9.09299 8.57776 8.44629 8.67188C7.90666 8.75043 7.41799 8.88153 7.03027 9.03809C6.48703 8.70237 6.10149 8.16769 6 7.5459C6.54779 7.5436 7.13404 7.47488 7.72949 7.32812C8.81084 7.0616 9.72687 6.58943 10.3564 6.03613Z" fill="black" fill-opacity="0.4"/>
<path d="M14.3799 6.03613C14.1413 6.37746 14.0001 6.78184 14 7.21777C14 7.7648 14.2198 8.26333 14.5801 8.64746C15.0408 8.57589 15.6433 8.57776 16.29 8.67188C16.8297 8.75043 17.3183 8.88153 17.7061 9.03809C18.2493 8.70237 18.6348 8.16769 18.7363 7.5459C18.1885 7.5436 17.6023 7.47488 17.0068 7.32812C15.9255 7.0616 15.0095 6.58943 14.3799 6.03613Z" fill="black" fill-opacity="0.4"/>
</svg>
